<svg version="1.1" id="Layer_1" xmlns="http://www.w3.org/2000/svg" xmlns:xlink="http://www.w3.org/1999/xlink" x="0px" y="0px"
	 width="100%" viewBox="0 0 1024 1024" enable-background="new 0 0 1024 1024" xml:space="preserve">
<path fill="#000000" opacity="1.000000" stroke="none" 
	d="
M85.280640,564.654114 
	C76.506592,552.876160 74.289818,539.598999 74.015305,525.714844 
	C73.920067,520.898193 73.245316,516.095581 72.946434,511.279602 
	C72.456047,503.378082 73.286827,495.694580 76.348137,488.266327 
	C79.369362,480.935242 79.255508,473.389984 77.457367,465.704865 
	C74.961311,455.036926 75.594673,444.212860 76.568726,433.423370 
	C77.200493,426.425323 77.898384,419.336395 75.882439,412.561310 
	C73.022118,402.948517 74.061630,393.346558 75.305046,383.810577 
	C76.681023,373.257935 78.341301,362.711151 81.097336,352.384583 
	C81.650330,350.312592 81.926872,348.125580 82.017181,345.978394 
	C82.445625,335.791565 87.739189,327.998016 97.792030,326.570709 
	C108.384323,325.066711 118.189995,322.693817 126.743454,316.022980 
	C128.238113,314.857300 130.409073,314.432739 132.340958,313.975128 
	C141.475174,311.811401 146.742950,306.105408 148.308350,296.902130 
	C148.643433,294.932129 149.327866,292.941864 149.233154,290.990906 
	C148.363037,273.067841 156.492950,256.957428 159.770004,239.865250 
	C162.972443,223.162170 173.584671,212.048523 190.273529,210.607269 
	C199.012924,209.852524 208.075272,210.999664 216.982010,212.841873 
	C234.091202,216.380600 251.310760,219.412292 268.290405,223.560944 
	C275.279907,225.268707 281.795898,228.274002 287.790283,232.334381 
	C288.899872,233.085999 290.192200,233.664612 290.688660,234.977371 
	C293.688080,242.908539 300.665436,244.093750 307.789185,245.922104 
	C324.613281,250.240128 342.135376,249.186264 358.994812,253.321716 
	C368.176453,255.573914 377.607697,253.831802 386.677246,251.425400 
	C392.771301,249.808487 395.755524,245.464890 396.020721,238.987427 
	C396.193298,234.772446 398.032288,231.686081 401.856934,229.855865 
	C405.873566,227.933746 408.942688,224.835922 411.580750,221.422607 
	C414.189331,218.047440 417.074982,215.103333 420.971802,213.409821 
	C428.479187,210.147232 435.294312,205.712280 442.239502,201.459778 
	C446.908020,198.601273 452.091766,197.977737 457.626160,198.487503 
	C463.111816,198.992783 468.582184,198.103775 473.672668,195.681274 
	C484.708557,190.429474 496.684540,189.617188 508.534515,187.757080 
	C527.798096,184.733215 547.084900,187.963409 566.361267,186.371765 
	C579.238342,185.308517 591.096313,190.795670 602.605225,196.259445 
	C617.930176,203.534882 633.263611,210.792328 648.611023,218.020187 
	C653.689026,220.411606 659.114502,221.234756 664.674438,221.047897 
	C680.028687,220.531860 695.294250,221.179855 710.463867,223.836700 
	C713.215698,224.318665 715.414185,224.969910 717.320862,227.236404 
	C720.050232,230.480942 723.765686,231.566559 727.646423,229.398270 
	C738.743225,223.198059 750.907227,220.738800 763.239197,218.640961 
	C775.086731,216.625565 785.433533,211.160461 793.696045,202.621201 
	C801.407715,194.651291 814.229309,191.834503 823.997498,199.306839 
	C827.397705,201.907822 831.760010,202.212250 835.593445,203.809433 
	C847.130188,208.616257 856.468018,216.849167 863.930481,226.150940 
	C876.505737,241.825455 891.425903,251.979416 911.585815,253.745316 
	C919.968506,254.479568 925.888733,258.647308 929.932983,265.821320 
	C931.922485,269.350281 934.337769,272.716278 937.707397,274.840942 
	C946.291199,280.253418 951.786316,287.838470 955.133484,297.257141 
	C959.599670,309.824738 967.952698,320.254272 975.399658,330.919098 
	C986.795715,347.239746 990.174927,365.234436 992.168762,384.327576 
	C994.687561,408.447540 994.550293,432.565735 993.790039,456.671173 
	C992.745300,489.799316 988.232910,522.380066 974.441895,553.043823 
	C972.293945,557.819641 969.159058,561.901855 966.383911,566.237000 
	C956.978882,580.928833 950.208557,597.178955 940.394470,611.540833 
	C933.300049,621.922791 926.487854,632.664246 917.667603,641.813110 
	C907.983643,651.857788 897.938171,661.583923 888.724731,672.043030 
	C880.804016,681.034668 870.246094,685.553406 860.127563,690.833862 
	C847.012207,697.678223 833.609436,703.973572 820.306641,710.456604 
	C805.072449,717.880920 791.684204,727.943665 779.259766,739.327209 
	C766.955627,750.600464 752.910461,758.990295 737.651306,765.574707 
	C710.421143,777.324463 682.177612,786.370850 654.510071,796.951477 
	C637.671814,803.390808 621.599854,811.429504 605.726074,819.902344 
	C597.951538,824.052002 590.388489,828.602356 581.285095,829.553467 
	C578.384644,829.856567 575.310608,830.910706 572.833801,832.452698 
	C559.554810,840.720154 545.341675,839.775818 531.276367,836.157715 
	C520.055786,833.271423 508.540863,830.637146 498.680939,823.922546 
	C495.933014,822.051208 492.901794,820.385864 490.675507,817.996948 
	C483.384033,810.172852 473.811615,808.186584 463.944885,805.895142 
	C446.739319,801.899292 428.893433,801.593628 411.942413,796.307556 
	C404.064697,793.850891 396.955200,789.789062 389.860229,785.835205 
	C374.888519,777.491943 358.878418,774.016724 341.920013,773.990784 
	C330.556274,773.973389 318.918671,773.175842 308.516174,769.256714 
	C300.113861,766.091248 290.045746,764.120178 284.604462,755.210571 
	C284.102264,754.388245 283.279419,753.669128 282.449310,753.153503 
	C268.809601,744.682312 257.120087,733.826660 245.389343,723.009338 
	C241.535599,719.455750 237.059601,716.847778 231.889236,715.753601 
	C215.532135,712.291809 202.331741,703.967285 192.707504,690.260498 
	C189.653702,685.911316 186.748688,681.386292 184.381775,676.639465 
	C177.292145,662.421570 166.442642,652.428162 151.777405,646.482605 
	C144.686768,643.607910 141.239120,637.702148 137.382507,631.398438 
	C129.875580,619.128479 124.322052,605.206299 110.416359,597.656189 
	C105.505341,594.989746 102.007126,589.771301 99.054817,584.661438 
	C95.055885,577.740051 90.759460,571.004883 85.280640,564.654114 
M365.965912,459.530731 
	C362.638458,451.733185 357.554840,445.256836 351.389587,439.479523 
	C340.323975,429.110168 326.811127,423.008820 313.057495,417.443024 
	C291.378021,408.669800 270.486298,398.421387 251.104568,385.292328 
	C229.406540,370.594208 208.251480,355.234772 192.665695,333.598938 
	C192.318359,333.116760 191.647873,332.867310 190.995560,332.417969 
	C187.981705,334.710083 187.324326,338.081604 186.452606,341.174103 
	C180.766525,361.346039 182.653259,381.040741 190.902710,400.131409 
	C200.986816,423.467773 218.817688,439.512939 240.368408,452.003326 
	C247.616577,456.204254 255.202576,459.750305 262.513702,463.949432 
	C235.810318,463.039886 212.817459,452.303345 191.930954,436.840027 
	C189.919434,438.686035 190.420319,440.451202 190.352325,442.059814 
	C189.877716,453.288544 192.730652,463.833344 197.289246,473.939667 
	C210.951370,504.228333 235.260498,521.038452 266.815857,528.674255 
	C275.836060,530.856995 285.116791,531.407776 294.846222,533.172607 
	C292.280579,535.964600 289.314789,536.547913 286.532501,537.303406 
	C270.951996,541.534119 255.295334,541.241394 239.620468,537.835571 
	C237.956467,537.473999 236.238693,536.942322 234.990814,538.481873 
	C233.715607,540.055176 234.671097,541.712646 235.417450,543.160645 
	C238.973709,550.059937 243.805176,556.007996 249.685745,561.013367 
	C269.065643,577.509094 291.851288,585.213257 316.983429,586.642761 
	C320.346588,586.834045 323.729980,586.669067 327.382507,586.669067 
	C326.553925,589.282471 324.870087,589.433533 323.591125,589.987793 
	C317.636719,592.568115 311.619263,595.002502 305.650909,597.551270 
	C300.698730,599.666138 300.330109,601.359009 304.150665,605.057556 
	C310.667542,611.366394 318.593811,615.138489 327.311920,617.232666 
	C348.499847,622.322083 366.436462,610.922485 369.600830,590.498169 
	C371.892487,575.706604 370.184113,560.971436 369.186157,546.206177 
	C368.268890,532.634705 366.694305,519.137756 369.197784,505.435822 
	C371.968109,490.273346 372.218903,474.973846 365.965912,459.530731 
M756.261414,396.851837 
	C755.251709,397.435608 754.246704,398.027679 753.231628,398.601959 
	C735.357361,408.714478 715.858276,415.334442 697.519043,424.401337 
	C660.793213,442.558472 651.122986,466.431122 656.372803,503.212463 
	C658.606506,518.862976 658.381897,534.363403 657.058472,549.955383 
	C655.933655,563.208374 654.433289,576.396301 656.274963,589.748840 
	C658.192749,603.653687 666.665466,614.038818 679.657776,617.242371 
	C685.206360,618.610474 690.770996,618.840881 696.457031,617.705566 
	C706.353943,615.729370 715.070496,611.538696 722.343750,604.544312 
	C725.564331,601.447205 725.216675,599.832764 721.078186,597.964355 
	C716.680481,595.978821 712.140625,594.307190 707.749329,592.308472 
	C704.719177,590.929199 701.274841,590.169495 698.771423,587.422852 
	C700.676270,586.262817 702.385437,586.676697 703.994202,586.721985 
	C723.613037,587.274048 741.908203,582.257385 759.130371,573.242615 
	C772.338806,566.328674 783.587646,557.104431 790.733887,543.634705 
	C791.554077,542.088745 792.958740,540.362366 791.543762,538.574036 
	C790.202393,536.878967 788.263916,537.505127 786.434265,537.859131 
	C773.779663,540.307190 761.048584,541.425720 748.244446,539.264587 
	C742.225586,538.248718 735.906677,537.848083 729.973511,533.007507 
	C741.882874,532.341003 752.495117,530.502563 762.885681,527.583069 
	C801.791626,516.651428 827.505798,492.963379 835.120605,452.119385 
	C836.054810,447.108368 836.741760,441.808167 834.131042,436.432251 
	C813.319763,452.532990 790.923096,462.859894 764.933960,463.933685 
	C767.289978,461.992828 769.953247,460.784119 772.585571,459.511444 
	C775.284973,458.206421 778.005127,456.931335 780.628723,455.484436 
	C812.664612,437.816467 835.998718,413.450745 841.098572,375.520172 
	C842.867310,362.364960 842.035828,349.268463 836.718811,336.810181 
	C835.981567,335.082855 835.674561,332.803406 833.265991,332.797058 
	C812.644409,360.081940 785.804993,379.518616 756.261414,396.851837 
M634.241211,599.632141 
	C634.906616,599.629761 635.572754,599.646423 636.237305,599.621948 
	C642.118958,599.405273 645.588562,596.425781 645.659058,591.539978 
	C645.730591,586.583069 642.320312,583.573303 636.346863,583.437683 
	C632.682312,583.354431 629.011719,583.308594 625.349548,583.425232 
	C622.419312,583.518616 621.028992,582.336548 621.050720,579.358398 
	C621.092102,573.693298 621.097351,568.026611 621.004822,562.362366 
	C620.953918,559.246521 622.469971,558.378845 625.360474,558.517456 
	C629.351074,558.708740 633.368408,558.781799 637.353149,558.546570 
	C642.408752,558.248047 645.687317,554.825562 645.674377,550.329224 
	C645.661865,546.009399 642.124512,542.650330 637.068237,542.433594 
	C633.242249,542.269531 629.399170,542.271484 625.572632,542.424255 
	C622.382935,542.551514 620.973694,541.218811 621.004517,538.059631 
	C621.058044,532.561096 621.084656,527.060608 620.992615,521.563110 
	C620.934814,518.113281 622.564819,516.806458 625.885986,516.901001 
	C629.715027,517.010132 633.554382,516.996948 637.382202,516.851318 
	C642.504333,516.656555 645.582336,513.803040 645.659790,509.416351 
	C645.737549,505.009247 642.256104,501.598114 637.241028,501.398071 
	C633.580322,501.252075 629.898315,501.169159 626.246704,501.395691 
	C622.376526,501.635773 620.811340,500.204346 620.971802,496.242279 
	C621.153381,491.758881 620.934692,487.257751 619.221130,482.967560 
	C613.828064,469.465515 603.202209,463.343048 589.348450,462.552551 
	C584.535828,462.277954 583.347717,460.543488 583.633362,456.253815 
	C583.887390,452.438232 583.750427,448.589874 583.653748,444.759338 
	C583.536316,440.111115 580.159241,436.647675 575.923401,436.664062 
	C571.661072,436.680573 568.430664,440.067780 568.304260,444.870239 
	C568.185913,449.366913 568.185547,453.869385 568.255127,458.367401 
	C568.296143,461.012970 567.375610,462.388153 564.514893,462.348663 
	C558.183655,462.261169 551.849792,462.274780 545.518250,462.352783 
	C542.775513,462.386536 541.601868,461.233124 541.647827,458.481323 
	C541.725830,453.816895 541.782288,449.143921 541.586609,444.485474 
	C541.399109,440.021271 537.482483,436.386139 533.478699,436.615387 
	C529.317261,436.853607 526.452759,440.021667 526.343750,444.741058 
	C526.236023,449.404816 526.246460,454.073090 526.303833,458.738190 
	C526.334717,461.248413 525.292053,462.375275 522.734863,462.347504 
	C516.403137,462.278717 510.069214,462.257416 503.738098,462.350006 
	C500.628204,462.395477 499.672882,460.815735 499.717377,458.007599 
	C499.783386,453.842590 499.766083,449.675079 499.709473,445.509644 
	C499.638428,440.285583 496.616577,436.746582 492.245392,436.659149 
	C488.009399,436.574432 484.520844,440.312439 484.382172,445.303223 
	C484.261902,449.632904 484.280060,453.969147 484.353210,458.300507 
	C484.396667,460.873413 483.683014,462.404114 480.720062,462.356812 
	C474.389313,462.255768 468.055328,462.291718 461.723480,462.354645 
	C458.973175,462.381989 457.783447,461.091461 457.796326,458.420654 
	C457.817200,454.088165 457.841583,449.754272 457.759399,445.423004 
	C457.657166,440.037384 454.847229,437.040222 450.036591,437.029449 
	C445.410248,437.019104 442.453644,440.225769 442.335388,445.561035 
	C442.243103,449.725220 442.173889,453.898376 442.344604,458.057312 
	C442.478821,461.327789 441.116547,462.358795 437.940125,462.447784 
	C434.648438,462.539948 431.293030,463.040680 428.111023,463.901031 
	C413.807343,467.768372 404.505341,479.919922 404.465027,495.350220 
	C404.452118,500.291809 402.798859,501.848297 398.112274,501.426544 
	C394.641602,501.114197 391.111603,501.238312 387.621368,501.422028 
	C383.051361,501.662598 379.457916,505.239319 379.418640,509.291779 
	C379.378479,513.437988 382.807739,516.682068 387.667786,516.855042 
	C391.829254,517.003174 395.999573,516.982239 400.164490,516.926025 
	C403.038361,516.887268 404.433960,517.971497 404.363892,521.044434 
	C404.230957,526.873962 404.261536,532.709778 404.357452,538.540771 
	C404.402954,541.305908 403.246338,542.451782 400.503632,542.402771 
	C396.339508,542.328430 392.161530,542.240967 388.009216,542.489319 
	C382.824036,542.799438 379.141876,546.671570 379.435120,551.099915 
	C379.702271,555.134094 383.178558,557.934021 388.297943,558.066223 
	C392.294739,558.169434 396.297485,558.041382 400.294403,558.142761 
	C401.905945,558.183594 404.085510,558.110535 404.131378,560.379639 
	C404.284637,567.954712 404.189514,575.534851 404.189514,583.420532 
	C398.426880,583.420532 393.444214,583.299194 388.470184,583.454163 
	C383.316406,583.614685 379.477509,587.222656 379.419220,591.642029 
	C379.363647,595.857788 383.469788,599.492859 388.586884,599.619507 
	C392.417572,599.714478 396.254486,599.734924 400.084259,599.629456 
	C402.911926,599.551575 404.436951,600.415833 404.357239,603.576660 
	C404.214417,609.239014 404.252380,614.908325 404.338684,620.572876 
	C404.381226,623.364746 403.136444,624.446106 400.426544,624.392700 
	C396.429077,624.313843 392.419403,624.235901 388.431213,624.454590 
	C383.143005,624.744690 379.366150,628.376343 379.457672,632.733765 
	C379.553894,637.315308 383.204224,640.511536 388.624847,640.632019 
	C392.455963,640.717163 396.294037,640.769470 400.121857,640.634644 
	C402.998291,640.533386 404.162323,641.550781 404.502472,644.566650 
	C405.310547,651.730896 407.023010,658.628845 412.013794,664.300964 
	C418.719391,671.921997 427.286469,675.409485 437.197784,675.588135 
	C441.132660,675.659058 442.561493,677.024231 442.347382,680.888977 
	C442.126556,684.875000 442.243774,688.888062 442.380280,692.883545 
	C442.550507,697.865356 445.469727,700.787170 450.102051,700.844360 
	C454.769165,700.901978 457.647247,698.042725 457.785461,692.983582 
	C457.899200,688.820496 457.909576,684.649109 457.784729,680.486755 
	C457.686188,677.202332 458.791840,675.543274 462.371918,675.650208 
	C468.199371,675.824402 474.039520,675.830139 479.866882,675.656921 
	C483.473450,675.549744 484.484711,677.233643 484.377014,680.508179 
	C484.234650,684.835754 484.200928,689.180725 484.422333,693.502747 
	C484.665131,698.241577 488.031586,701.043152 492.759674,700.824829 
	C497.033905,700.627441 499.577026,697.976013 499.705292,693.327148 
	C499.829376,688.830688 499.849579,684.327820 499.767792,679.830444 
	C499.713226,676.829468 501.069946,675.642212 503.991180,675.680664 
	C509.989349,675.759705 515.990723,675.790588 521.987793,675.679077 
	C525.249817,675.618408 526.425842,677.082397 526.333801,680.215332 
	C526.211548,684.377502 526.285461,688.547241 526.352173,692.712524 
	C526.437561,698.039062 528.935059,700.782532 533.648682,700.848938 
	C538.518066,700.917603 541.497559,697.924561 541.625244,692.647644 
	C541.725952,688.483826 541.772461,684.311646 541.623413,680.151001 
	C541.510620,677.002258 542.645630,675.586792 545.932251,675.663635 
	C551.928162,675.803894 557.931885,675.795837 563.928101,675.660950 
	C567.251831,675.586182 568.320923,677.162903 568.257324,680.223267 
	C568.167358,684.553894 568.171509,688.890137 568.284180,693.220215 
	C568.410339,698.067261 571.079468,700.750854 575.636536,700.846191 
	C580.366943,700.945251 583.453430,698.126343 583.644226,693.224304 
	C583.812622,688.897644 583.802734,684.557556 583.684021,680.228455 
	C583.599915,677.162598 584.592102,675.663574 587.939026,675.642761 
	C606.275635,675.528870 620.971741,661.848145 620.938904,645.032776 
	C620.932129,641.576843 622.724060,640.447327 626.017395,640.612122 
	C629.840332,640.803284 633.686218,640.771912 637.512207,640.606445 
	C642.463928,640.392212 645.492615,637.442749 645.677124,632.963379 
	C645.873413,628.199341 642.930542,624.962585 637.831787,624.456909 
	C636.345703,624.309509 634.834656,624.403381 633.335022,624.404663 
	C621.101929,624.415222 621.101990,624.416504 621.042908,612.263672 
	C620.981628,599.663452 620.981567,599.663452 634.241211,599.632141 
M600.995300,364.505615 
	C596.727966,360.935486 591.844055,358.523529 586.669006,356.539520 
	C569.704895,350.035919 551.898438,347.554504 533.994019,346.558777 
	C511.568512,345.311646 489.085663,345.566467 466.819427,349.332672 
	C453.499146,351.585693 440.568512,354.884521 428.547241,361.529083 
	C417.359009,367.713257 415.539612,386.025726 426.791687,393.537994 
	C430.255005,395.850220 433.690887,398.137604 437.537476,399.818726 
	C455.494293,407.666595 474.606354,410.434296 493.851379,411.428802 
	C514.429321,412.492188 535.094421,412.402405 555.529297,408.661682 
	C569.970581,406.018097 584.268188,402.928101 596.853638,394.825500 
	C608.337219,387.432281 610.187195,375.238281 600.995300,364.505615 
z"/>
<path fill="#000000" opacity="1.000000" stroke="none" 
	d="
M423.039215,618.000000 
	C423.017670,578.682617 423.043243,539.865051 422.955536,501.047821 
	C422.923340,486.783905 424.878754,480.336121 443.341522,480.514862 
	C491.150879,480.977783 538.967712,480.667084 586.781555,480.671234 
	C598.646484,480.672241 603.091309,484.944336 603.105469,496.941254 
	C603.162109,544.754883 603.153687,592.568726 603.066162,640.382324 
	C603.043213,652.912720 598.527954,657.262512 586.161499,657.263794 
	C537.348083,657.268921 488.534729,657.263611 439.721344,657.256714 
	C428.436523,657.255127 424.190826,653.659363 423.429749,642.473328 
	C422.887909,634.510254 423.142365,626.493042 423.039215,618.000000 
M442.003662,564.470764 
	C440.569305,567.550781 441.837067,569.911072 443.970093,572.091187 
	C449.096161,577.330261 454.176361,582.614258 459.306732,587.849060 
	C465.718231,594.391113 472.125946,600.937866 478.620300,607.397095 
	C479.965454,608.734985 481.474884,610.514465 483.764099,608.759644 
	C487.132782,606.177368 487.632538,599.137573 484.665314,595.883850 
	C476.921143,587.391968 469.262695,578.818726 461.368286,570.468689 
	C458.728455,567.676514 458.661896,566.031128 461.626373,563.268372 
	C471.250305,554.299377 480.612122,545.043213 489.907013,535.730042 
	C493.709198,531.920471 493.395660,528.485474 489.837433,524.874756 
	C486.105286,521.087524 483.514435,523.309265 480.670593,526.133972 
	C469.210419,537.516968 458.054199,549.224731 445.491333,559.447388 
	C444.075500,560.599487 442.758179,561.910095 442.003662,564.470764 
M506.907532,618.350586 
	C507.407257,617.490234 508.071564,616.685364 508.382874,615.761475 
	C518.568115,585.536743 527.990784,555.071899 537.103577,524.508789 
	C538.322388,520.421143 536.171387,518.477722 532.825623,517.474426 
	C527.811096,515.970642 525.020996,517.773682 523.255310,523.393433 
	C514.145203,552.388184 505.595551,581.559875 495.778748,610.331787 
	C494.818604,613.145935 493.447357,616.236206 496.786285,618.409851 
	C499.800720,620.372192 503.056061,621.680603 506.907532,618.350586 
M538.003235,598.615417 
	C534.992737,601.105225 534.068726,603.992798 536.619629,607.300232 
	C539.287415,610.759277 544.381104,610.832947 548.016113,607.262939 
	C559.905212,595.586121 571.736267,583.849121 583.488770,572.034973 
	C587.514893,567.987671 587.475647,565.378235 583.383728,561.385620 
	C578.022644,556.154480 572.347595,551.244690 566.998169,546.002197 
	C561.644104,540.755188 556.564758,535.228760 551.276917,529.912476 
	C549.790466,528.418030 548.107544,526.539734 545.870667,529.090942 
	C543.074524,532.280029 543.107544,537.483704 545.855408,540.871033 
	C552.158203,548.640747 558.705261,556.201782 565.760986,563.288330 
	C568.545654,566.085205 568.922791,567.960388 565.794250,570.953552 
	C556.525818,579.820801 547.587219,589.032959 538.003235,598.615417 
z"/>
<path fill="#000000" opacity="1.000000" stroke="none" 
	d="
M580.619812,372.051941 
	C583.891846,373.685638 587.949890,374.523834 587.918091,378.498871 
	C587.885376,382.591217 583.913330,383.923767 580.755188,385.308197 
	C568.857666,390.523529 556.110779,391.927032 543.380920,393.302979 
	C528.447266,394.917145 513.442871,394.698364 498.486359,394.202545 
	C483.056824,393.691071 467.626495,392.500793 452.654022,388.205109 
	C448.642578,387.054169 444.752716,385.559113 441.244873,383.257355 
	C436.340881,380.039398 436.428528,376.663544 441.590729,373.927551 
	C449.969757,369.486542 459.230927,368.044434 468.438477,366.855377 
	C483.776459,364.874634 499.256073,363.442169 514.682312,364.009521 
	C536.710388,364.819641 558.935852,364.880280 580.619812,372.051941 
z"/>
</svg>